PathFileType	4	(X/Y/Z)	C:/Users/beibeiliu/ov580/test_trc/User1\sequence.8_training_dense_left.trc
DataRate	CameraRate	NumFrames	NumMarkers	Units	OrigDataRate	OrigDataStartFrame	OrigNumFrames
120	120	10	19	mm	120	145	289
Frame#	Time	ThumbCMC			ThumbMCP			ThumbIP			ThumbTip			IndexMCP			IndexPIP			IndexTip			MiddleMCP			MiddlePIP			MiddleTip			RingMCP			RingPIP			RingTip			PinkyMCP			PinkyPIP			PinkyTip			BackHand1			BackHand2			BackHand3	
		X0	Y0	Z0	X1	Y1	Z1	X2	Y2	Z2	X3	Y3	Z3	X4	Y4	Z4	X5	Y5	Z5	X6	Y6	Z6	X7	Y7	Z7	X8	Y8	Z8	X9	Y9	Z9	X10	Y10	Z10	X11	Y11	Z11	X12	Y12	Z12	X13	Y13	Z13	X14	Y14	Z14	X15	Y15	Z15	X16	Y16	Z16	X17	Y17	Z17	X18	Y18	Z18	
144	1.2	-236.874	167.065	34.1189	-225.917	190.886	22.473	-224.644	214.378	13.3572	-225.331	235.564	16.3594	-203.747	178.801	-44.3642	-174.941	167.533	-30.3659	-196.068	161.484	-0.606303	-202.34	153.037	-55.494	-175.245	145.684	-35.4119	-200.925	143.367	-2.3671	-196.886	131.787	-51.3883	-178.839	126.165	-28.2283	-206.885	122.908	-3.22331	-206.291	110.963	-45.2135	-188.459	110.502	-20.528	-211.475	112.847	-0.990587	-254.735	124.758	-22.2025	-266.831	109.975	9.9273	-257.612	150.105	3.69694	
145	1.20833	-240.693	170.233	30.4643	-230.348	189.948	20.0537	-232.418	215.001	9.3684	-234.404	233.969	12.478	-202.604	178.428	-45.169	-177.353	168.831	-31.4508	-195.822	162.556	-2.35203	-203.727	152.184	-54.8077	-176.309	147.719	-34.8161	-202.474	145.387	-0.885488	-201.278	132.935	-50.8474	-178.74	128.26	-25.1154	-206.271	126.845	-3.32271	-198.671	108.9	-46.4215	-184.647	111.75	-21.1761	-210.831	112.649	-0.419743	-252.587	118.56	-21.5726	-265.687	106.179	10.0074	-259.454	147.486	5.87272	
146	1.21667	-242.332	165.009	28.851	-233.902	188.193	16.031	-240.3	213.501	12.058	-242.533	231.04	7.7084	-206.741	177.498	-47.1873	-179.969	174.581	-32.3978	-202.838	166.039	-0.438615	-204.936	156.411	-55.54	-176.911	152.326	-34.1669	-200.517	147.235	-3.12029	-196.367	134.16	-51.1085	-178.118	133.052	-21.0479	-201.925	128.232	-2.82264	-198.106	110.422	-44.8196	-183.206	118.841	-21.922	-210.777	118.874	-0.828204	-250.842	117.158	-21.0876	-262.969	105.147	8.85371	-262.849	142.758	3.18403	
147	1.225	-245.347	166.749	26.3936	-240.392	190.301	16.8242	-246.504	210.169	3.27519	-254.078	230.708	7.11677	-210.751	181.621	-47.4431	-182.118	176.654	-32.0523	-201.326	168.318	-2.9303	-202.84	154.218	-56.0895	-177.266	157.482	-35.085	-199.77	150.315	-3.64654	-196.584	132.705	-50.8224	-178.101	139.206	-22.2813	-205.309	130.163	-2.11804	-194.169	111.226	-45.5574	-182.807	122.991	-18.7708	-210.291	119.722	-0.631896	-247.88	114.04	-25.0038	-260.206	104.415	12.9669	-261.341	144.687	4.05683	
148	1.23333	-249.193	167.298	27.7432	-245.811	189.455	11.5385	-253.809	208.638	0.249724	-261.802	228.632	2.80006	-212.82	178.636	-49.6707	-183.376	175.627	-33.6566	-205.275	166.422	-3.93464	-204.692	157.666	-56.6931	-177.848	161.285	-33.9131	-202.141	149.641	-4.03951	-193.113	133.315	-50.4477	-176.689	141.806	-23.0765	-205.173	136.981	-2.38142	-192.745	114.223	-43.8054	-181.15	126.912	-18.5487	-209.009	121.344	-0.528974	-245.414	113.507	-25.0626	-259.394	104.841	13.5387	-261.72	141.598	0.4493	
149	1.24167	-249.633	164.968	24.6526	-249.555	189.366	12.5768	-261.427	208.981	-5.33469	-270.628	225.341	-7.05148	-208.617	178.591	-51.5234	-183.743	175.752	-35.4965	-207.413	170.941	-4.92436	-205.151	156.414	-56.8544	-176.212	161.061	-35.9291	-204.629	154.164	-2.84713	-193.268	137.312	-50.411	-175.526	143.315	-21.772	-199.205	135.247	-1.70121	-192.105	114.223	-42.329	-176.136	126.03	-20.1005	-204.722	122.068	-0.384303	-243.554	110.314	-24.7151	-254.277	100.479	11.2355	-262.427	141.789	-0.017964	
150	1.25	-250.58	163.259	19.6928	-252.998	186.847	3.94329	-263.967	202.974	-7.72947	-274.12	218.919	-10.3094	-211.374	175.454	-53.4686	-183.629	181.126	-33.8133	-204.948	168.565	-7.06635	-198.98	152.707	-58.3971	-176.135	159.887	-32.5657	-198.83	154.206	-5.25165	-189.426	139.043	-50.7927	-174.209	144.894	-21.8402	-199.68	137.173	-2.65053	-185.47	112.999	-43.1434	-175.522	128.121	-18.3627	-202.901	123.98	2.29871	-241.696	109.777	-21.5101	-251.401	101.288	10.4028	-261.683	138.337	-2.31302	
151	1.25833	-253.136	164.56	18.0654	-252.24	180.313	0.333361	-268.806	198.553	-15.4154	-277.182	212.072	-20.8202	-211.39	173.045	-55.3249	-183.404	178.229	-36.6812	-205.732	168.502	-8.55332	-199.66	149.095	-58.917	-173.829	160.626	-35.5151	-200.361	153.556	-5.25343	-185.027	135.115	-50.6754	-173.129	145.171	-21.978	-195.835	137.099	-2.30228	-183.456	115.534	-42.4693	-171.738	127.818	-18.7385	-196.196	124.693	1.56104	-238.154	104.671	-26.2446	-248.865	97.0711	8.91155	-256.921	132.858	-7.72797	
152	1.26667	-251.797	161.163	16.8237	-252.398	178.831	2.88943	-267.755	193.662	-14.663	-277.976	206.953	-20.799	-208.739	172.949	-55.8657	-184.026	179.421	-36.3045	-203.386	168.952	-9.50349	-196.6	148.157	-60.0921	-173.893	161.953	-36.5203	-197.425	151.823	-6.10704	-186.935	132.43	-51.4245	-170.621	143.446	-24.4541	-198.492	133.607	-3.07403	-179.693	109.915	-42.0455	-172.677	128.732	-19.777	-197.335	123.703	-1.20214	-235.842	103.159	-22.7618	-249.704	97.9414	9.46362	-256.55	130.236	-5.4726	
153	1.275	-249.775	156.638	16.2986	-255.523	176.335	0.471128	-266.576	186.804	-19.9886	-277.535	201.293	-23.5631	-209.346	164.783	-57.3166	-182.901	175.984	-35.3115	-206.854	163.913	-10.6231	-194.178	149.018	-61.0368	-172.686	157.615	-36.1162	-198.894	152.016	-6.55331	-184.331	125.576	-51.4561	-169.849	141.724	-21.9247	-195.008	135.089	-3.95536	-180.744	110.534	-41.4708	-170.428	125.108	-16.9248	-195.882	121.169	-0.411223	-232.04	99.2421	-26.5058	-246.623	92.4498	10.9862	-256.371	126.496	-5.14882	
